<?xml version="1.0" encoding="UTF-8" standalone="no"?>
<!-- Created with Inkscape (http://www.inkscape.org/) -->

<svg
   version="1.1"
   id="svg2"
   width="1122.52"
   height="793.70135"
   viewBox="0 0 1122.52 793.70135"
   sodipodi:docname="bbo_Logo.ai"
   xmlns:inkscape="http://www.inkscape.org/namespaces/inkscape"
   xmlns:sodipodi="http://sodipodi.sourceforge.net/DTD/sodipodi-0.dtd"
   xmlns="http://www.w3.org/2000/svg"
   xmlns:svg="http://www.w3.org/2000/svg">
  <defs
     id="defs6">
    <linearGradient
       x1="0"
       y1="0"
       x2="1"
       y2="0"
       gradientUnits="userSpaceOnUse"
       gradientTransform="matrix(650.02118,0,0,-650.02118,95.934296,297.63779)"
       spreadMethod="pad"
       id="linearGradient30">
      <stop
         style="stop-opacity:1;stop-color:#e92729"
         offset="0"
         id="stop22" />
      <stop
         style="stop-opacity:1;stop-color:#e92729"
         offset="0.00408339"
         id="stop24" />
      <stop
         style="stop-opacity:1;stop-color:#a7262f"
         offset="0.999942"
         id="stop26" />
      <stop
         style="stop-opacity:1;stop-color:#a7262f"
         offset="1"
         id="stop28" />
    </linearGradient>
  </defs>
  <sodipodi:namedview
     id="namedview4"
     pagecolor="#ffffff"
     bordercolor="#000000"
     borderopacity="0.25"
     inkscape:showpageshadow="2"
     inkscape:pageopacity="0.0"
     inkscape:pagecheckerboard="0"
     inkscape:deskcolor="#d1d1d1" />
  <g
     id="g8"
     inkscape:groupmode="layer"
     inkscape:label="bbo_Logo"
     transform="matrix(1.3333333,0,0,-1.3333333,0,793.70133)">
    <g
       id="g10">
      <g
         id="g12">
        <g
           id="g18">
          <g
             id="g20">
            <path
               d="m 303.921,544.684 c -114.868,0 -207.986,-93.121 -207.986,-207.99 v 0 c 0,-114.867 93.118,-207.986 207.986,-207.986 v 0 H 449.62 l -7.513,-53.234 c -0.412,-1.598 -0.701,-3.242 -0.701,-4.97 v 0 c 0,-10.996 8.915,-19.911 19.912,-19.911 v 0 c 2.712,0 5.293,0.551 7.65,1.533 v 0 l 0.009,-0.006 0.029,0.018 c 1.633,0.685 3.105,1.638 4.483,2.712 v 0 l 163.91,99.121 -0.015,-0.002 c 64.682,35.266 108.571,103.867 108.571,182.725 v 0 c 0,114.869 -93.118,207.99 -207.985,207.99 v 0 z m 45.27,-235.119 v 128.937 c 0,8.565 6.945,15.507 15.51,15.507 v 0 c 8.565,0 15.51,-6.942 15.51,-15.507 v 0 -70.188 c 11.46,7.875 25.314,12.504 40.237,12.504 v 0 c 39.292,0 71.257,-31.964 71.257,-71.253 v 0 c 0,-39.292 -31.965,-71.258 -71.257,-71.258 v 0 c -39.292,0 -71.257,31.966 -71.257,71.258 m -165.238,0 v 128.937 c 0,8.565 6.945,15.507 15.509,15.507 v 0 c 8.566,0 15.511,-6.942 15.511,-15.507 v 0 -70.188 c 11.46,7.875 25.313,12.504 40.236,12.504 v 0 c 39.293,0 71.258,-31.964 71.258,-71.253 v 0 c 0,-39.292 -31.965,-71.258 -71.258,-71.258 v 0 c -39.291,0 -71.256,31.966 -71.256,71.258 m 331.47,0 c 0,39.289 31.965,71.253 71.256,71.253 v 0 c 39.293,0 71.258,-31.964 71.258,-71.253 v 0 c 0,-39.292 -31.965,-71.258 -71.258,-71.258 v 0 c -39.291,0 -71.256,31.966 -71.256,71.258"
               style="fill:url(#linearGradient30);stroke:none"
               id="path32" />
          </g>
        </g>
      </g>
    </g>
  </g>
</svg>
